<?xml version="1.0" standalone="no"?>
<!DOCTYPE svg PUBLIC "-//W3C//DTD SVG 20010904//EN"
 "http://www.w3.org/TR/2001/REC-SVG-20010904/DTD/svg10.dtd">
<svg version="1.0" xmlns="http://www.w3.org/2000/svg"
 width="83.000000pt" height="88.000000pt" viewBox="0 0 83.000000 88.000000"
 preserveAspectRatio="xMidYMid meet">

<g transform="translate(0.000000,88.000000) scale(0.100000,-0.100000)"
fill="#000000" stroke="none">
<path d="M120 712 c0 -80 0 -82 30 -97 16 -8 34 -24 40 -34 5 -11 10 -81 10
-156 l0 -136 80 3 80 3 4 140 5 140 36 31 c34 31 35 33 35 108 0 91 -4 92
-100 44 -55 -27 -65 -29 -84 -18 -39 25 -73 40 -104 46 l-32 7 0 -81z"/>
<path d="M470 715 c0 -74 1 -77 35 -109 67 -64 34 -144 -63 -154 l-52 -5 0
-80 0 -80 68 5 c107 8 189 63 227 155 19 45 19 140 0 186 -30 72 -107 136
-182 152 l-33 7 0 -77z"/>
<path d="M420 565 c-26 -32 13 -81 48 -59 22 14 27 41 12 59 -16 19 -44 19
-60 0z"/>
<path d="M200 179 l0 -81 33 6 c59 11 112 64 123 124 l7 32 -82 0 -81 0 0 -81z"/>
</g>
</svg>
